<?xml version="1.0" encoding="utf-8"?>
<!-- Generator: Adobe Illustrator 24.1.0, SVG Export Plug-In . SVG Version: 6.00 Build 0)  -->
<svg version="1.1"
	 id="svg" inkscape:version="0.91 r13725" sodipodi:docname="–ї–∞–±–∞12.svg" xmlns:cc="http://creativecommons.org/ns#" xmlns:dc="http://purl.org/dc/elements/1.1/" xmlns:inkscape="http://www.inkscape.org/namespaces/inkscape" xmlns:osb="http://www.openswatchbook.org/uri/2009/osb" xmlns:rdf="http://www.w3.org/1999/02/22-rdf-syntax-ns#" xmlns:sodipodi="http://sodipodi.sourceforge.net/DTD/sodipodi-0.dtd" xmlns:svg="http://www.w3.org/2000/svg"
	 xmlns="http://www.w3.org/2000/svg" xmlns:xlink="http://www.w3.org/1999/xlink" x="0px" y="0px" viewBox="0 0 841.9 595.3"
	 style="enable-background:new 0 0 841.9 595.3;" xml:space="preserve">
<style type="text/css">
	.st0{fill-rule:evenodd;clip-rule:evenodd;fill:#FF2A2A;fill-opacity:0;}
	.st1{fill-rule:evenodd;clip-rule:evenodd;fill:url(#sunset_1_);}
	.st2{fill-rule:evenodd;clip-rule:evenodd;fill:url(#waves_4_);}
	.st3{fill-rule:evenodd;clip-rule:evenodd;fill:#FFFFFF;stroke:#000000;}
	.st4{fill-rule:evenodd;clip-rule:evenodd;fill:url(#waves_5_);}
	.st5{fill-rule:evenodd;clip-rule:evenodd;fill:url(#waves_6_);}
	.st6{fill-rule:evenodd;clip-rule:evenodd;fill:url(#waves_7_);}
</style>
<g id="sea" transform="translate(0,-308.26772)" inkscape:groupmode="layer" inkscape:label="Layer 1">
	<rect id="rect" x="20.6" y="332.1" class="st0" width="788.6" height="546.3"/>
	
		<radialGradient id="sunset_1_" cx="520.9694" cy="393.5356" r="502.8571" gradientTransform="matrix(3.790880e-03 -0.9 -1.0773 -4.548320e-03 833.3987 1095.3444)" gradientUnits="userSpaceOnUse">
		<stop  offset="0" style="stop-color:#EACF8F"/>
		<stop  offset="1" style="stop-color:#ECC3CA"/>
	</radialGradient>
	<rect id="sunset" x="18.3" y="320.7" class="st1" width="804.6" height="562.3"/>
	<g id="wave4" transform="matrix(0.94165814,0,0,0.71571909,-4.38222,167.52768)">
		
			<linearGradient id="waves_4_" gradientUnits="userSpaceOnUse" x1="539.7255" y1="-822.191" x2="539.7255" y2="-491.1233" gradientTransform="matrix(0.7533 0 0 -0.5726 44.6928 502.6781)">
			<stop  offset="0" style="stop-color:#00056B"/>
			<stop  offset="1" style="stop-color:#0066DF"/>
		</linearGradient>
		<path id="waves_3_" inkscape:connector-curvature="0" sodipodi:nodetypes="cssssscccc" class="st2" d="M24.1,625.4
			c21.2,9.9,55.3,22.1,96.7,20.2c85.8-4,109.6-55.5,180.8-59.4c39.1-2.2,93.1,64.9,132.5,62.1c50.6-3.7,115.1-54.8,164.4-65.9
			c57.3-12.9,69.7,47.6,133.7,59.6c60.3,11.3,112.9-16.8,146.4-40.5c0,138.1,0,276.2,0,414.3c-284.8,0-569.6,0-854.4,0
			C24.1,885.6,24.1,755.5,24.1,625.4z"/>
		<g id="obj8">
			
				<path id="path_17_" sodipodi:argument="-36.828354" sodipodi:cx="-633.03754" sodipodi:cy="472.36221" sodipodi:expansion="4" sodipodi:radius="102.28409" sodipodi:revolution="3" sodipodi:t0="0.58559304" sodipodi:type="spiral" class="st3" d="
				M308.3,588c-5.3-0.7-9.4,4.3-9.8,9.4c-0.8,8.9,7.2,15.5,15.3,16c13.3,0.8,23.1-12,23.5-24.8c0.6-20.3-17.8-34.9-36.4-35.1
				c-27.1-0.3-47.1,25.1-48,51.7"/>
			
				<path id="path_16_" sodipodi:argument="-36.828354" sodipodi:cx="-633.03754" sodipodi:cy="472.36221" sodipodi:expansion="4" sodipodi:radius="102.28409" sodipodi:revolution="3" sodipodi:t0="0.58559304" sodipodi:type="spiral" class="st3" d="
				M236.6,609.2c-4.3,0.3-6.6,4-6,7.1c1,5.6,8.4,8.6,14.8,7.7c10.6-1.4,16-10.6,14-18.5c-3.1-12.6-20-19.1-34.6-16.6
				c-21.3,3.6-32.4,22-28.5,38.5"/>
			
				<path id="path_15_" sodipodi:argument="-36.828354" sodipodi:cx="-633.03754" sodipodi:cy="472.36221" sodipodi:expansion="4" sodipodi:radius="102.28409" sodipodi:revolution="3" sodipodi:t0="0.58559304" sodipodi:type="spiral" class="st3" d="
				M359.5,620.6c-1.9-2.8-5.7-2.3-7.9-0.1c-3.9,3.9-3.3,10.7-0.1,14.7c5.3,6.5,14.5,5,19.9-1c8.5-9.4,6.7-24.9-1-33.5
				c-11.3-12.7-29.9-9.7-41.1,2.5"/>
		</g>
		<g id="obj7" transform="translate(376.27057,-4.8892485)">
			
				<path id="path_14_" sodipodi:argument="-36.828354" sodipodi:cx="-633.03754" sodipodi:cy="472.36221" sodipodi:expansion="4" sodipodi:radius="102.28409" sodipodi:revolution="3" sodipodi:t0="0.58559304" sodipodi:type="spiral" class="st3" d="
				M233,588.2c-5.3-0.7-9.4,4.3-9.8,9.4c-0.8,8.9,7.2,15.5,15.3,16c13.3,0.8,23.1-12,23.5-24.8c0.6-20.3-17.8-34.9-36.4-35.1
				c-27.1-0.3-47.1,25.1-48,51.7"/>
			
				<path id="path_13_" sodipodi:argument="-36.828354" sodipodi:cx="-633.03754" sodipodi:cy="472.36221" sodipodi:expansion="4" sodipodi:radius="102.28409" sodipodi:revolution="3" sodipodi:t0="0.58559304" sodipodi:type="spiral" class="st3" d="
				M164.9,610.9c-4.2,0.7-6.2,4.6-5.4,7.7c1.5,5.5,9.1,7.8,15.4,6.4c10.4-2.3,15-12,12.3-19.7c-4.2-12.3-21.7-17.2-36-13.4
				c-20.9,5.5-30.3,24.9-24.8,40.9"/>
			
				<path id="path_12_" sodipodi:argument="-36.828354" sodipodi:cx="-633.03754" sodipodi:cy="472.36221" sodipodi:expansion="4" sodipodi:radius="102.28409" sodipodi:revolution="3" sodipodi:t0="0.58559304" sodipodi:type="spiral" class="st3" d="
				M284.2,620.8c-1.9-2.8-5.7-2.3-7.9-0.1c-3.9,3.9-3.3,10.7-0.1,14.7c5.3,6.5,14.5,5,19.9-1c8.5-9.4,6.7-24.9-1-33.5
				c-11.3-12.7-29.9-9.7-41.1,2.5"/>
		</g>
	</g>
	<g id="wave3" transform="matrix(0.93244626,0,0,0.83277594,-180.75082,170.26843)">
		
			<linearGradient id="waves_5_" gradientUnits="userSpaceOnUse" x1="941.4002" y1="-483.3026" x2="941.4002" y2="-223.9732" gradientTransform="matrix(0.746 0 0 -0.6662 -57.3571 513.3492)">
			<stop  offset="0" style="stop-color:#00056B"/>
			<stop  offset="1" style="stop-color:#0066DF"/>
		</linearGradient>
		<path id="waves_2_" inkscape:connector-curvature="0" sodipodi:nodetypes="cssssscccc" class="st4" d="M213.5,623.8
			c12.8-4.5,31.8-11.3,55-19.7c65.1-23.6,64.1-24.4,71-25.6c56.9-9.4,72,66.5,132.5,62.1c50.6-3.7,115.1-54.8,164.4-65.9
			c58.2-13.1,82.3,39.3,133.7,59.6c56.6,22.4,150,20.7,306.4-106.8c0,113.6,0,227.2,0,340.8c-287.6,0-575.2,0-862.9,0
			C213.5,786.8,213.5,705.3,213.5,623.8z"/>
		<g id="obj6">
			
				<path id="path_11_" sodipodi:argument="-36.828354" sodipodi:cx="-633.03754" sodipodi:cy="472.36221" sodipodi:expansion="4" sodipodi:radius="102.28409" sodipodi:revolution="3" sodipodi:t0="0.58559304" sodipodi:type="spiral" class="st3" d="
				M346.1,575.7c-5.3-0.7-9.4,4.3-9.8,9.4c-0.8,8.9,7.2,15.5,15.3,16c13.3,0.8,23.1-12,23.5-24.8c0.6-20.3-17.8-34.9-36.4-35.1
				c-27.1-0.3-47.1,25.1-48,51.7"/>
			
				<path id="path_10_" sodipodi:argument="-36.828354" sodipodi:cx="-633.03754" sodipodi:cy="472.36221" sodipodi:expansion="4" sodipodi:radius="102.28409" sodipodi:revolution="3" sodipodi:t0="0.58559304" sodipodi:type="spiral" class="st3" d="
				M274.4,596.9c-4.3,0.3-6.6,4-6,7.1c1,5.6,8.4,8.6,14.8,7.7c10.6-1.4,16-10.6,14-18.5c-3.1-12.6-20-19.1-34.6-16.6
				c-21.3,3.6-32.4,22-28.5,38.5"/>
			
				<path id="path_9_" sodipodi:argument="-36.828354" sodipodi:cx="-633.03754" sodipodi:cy="472.36221" sodipodi:expansion="4" sodipodi:radius="102.28409" sodipodi:revolution="3" sodipodi:t0="0.58559304" sodipodi:type="spiral" class="st3" d="
				M397.3,608.3c-1.9-2.8-5.7-2.3-7.9-0.1c-3.9,3.9-3.3,10.7-0.1,14.7c5.3,6.5,14.5,5,19.9-1c8.5-9.4,6.7-24.9-1-33.5
				c-11.3-12.7-29.9-9.7-41.1,2.5"/>
		</g>
		<g id="obj5" transform="translate(376.27057,-4.8892485)">
			
				<path id="path_8_" sodipodi:argument="-36.828354" sodipodi:cx="-633.03754" sodipodi:cy="472.36221" sodipodi:expansion="4" sodipodi:radius="102.28409" sodipodi:revolution="3" sodipodi:t0="0.58559304" sodipodi:type="spiral" class="st3" d="
				M270.9,576.6c-5.3-0.7-9.4,4.3-9.8,9.4c-0.8,8.9,7.2,15.5,15.3,16c13.3,0.8,23.1-12,23.5-24.8c0.6-20.3-17.8-34.9-36.4-35.1
				c-27.1-0.3-47.1,25.1-48,51.7"/>
			
				<path id="path_7_" sodipodi:argument="-36.828354" sodipodi:cx="-633.03754" sodipodi:cy="472.36221" sodipodi:expansion="4" sodipodi:radius="102.28409" sodipodi:revolution="3" sodipodi:t0="0.58559304" sodipodi:type="spiral" class="st3" d="
				M202.7,599.4c-4.2,0.7-6.2,4.6-5.4,7.7c1.5,5.5,9.1,7.8,15.4,6.4c10.4-2.3,15-12,12.3-19.7c-4.2-12.3-21.7-17.2-36-13.4
				c-20.9,5.5-30.3,24.9-24.8,40.9"/>
			
				<path id="path_6_" sodipodi:argument="-36.828354" sodipodi:cx="-633.03754" sodipodi:cy="472.36221" sodipodi:expansion="4" sodipodi:radius="102.28409" sodipodi:revolution="3" sodipodi:t0="0.58559304" sodipodi:type="spiral" class="st3" d="
				M322.1,609.3c-1.9-2.8-5.7-2.3-7.9-0.1c-3.9,3.9-3.3,10.7-0.1,14.7c5.3,6.5,14.5,5,19.9-1c8.5-9.4,6.7-24.9-1-33.5
				c-11.3-12.7-29.9-9.7-41.1,2.5"/>
		</g>
	</g>
	<g id="wave2" transform="matrix(0.93654043,0,0,0.8026756,5.5717474,266.3596)">
		
			<linearGradient id="waves_6_" gradientUnits="userSpaceOnUse" x1="523.0918" y1="-544.171" x2="523.0918" y2="-368.4377" gradientTransform="matrix(0.7492 0 0 -0.6421 51.2028 409.4083)">
			<stop  offset="0" style="stop-color:#00056B"/>
			<stop  offset="1" style="stop-color:#0066DF"/>
		</linearGradient>
		<path id="waves_1_" inkscape:connector-curvature="0" sodipodi:nodetypes="cssssscccc" class="st5" d="M13.6,598.7
			c24,9.6,61,20.4,105.1,16.6c87.7-7.5,111-55.6,180.8-59.4c39.1-2.2,93.1,64.9,132.5,62.1c50.6-3.7,115.1-54.8,164.4-65.9
			c58.6-13.2,72,52,133.7,59.6c57.5,7.1,108.2-27.9,142.7-59.4c0,76.4,0,152.7,0,229.1c-286.4,0-572.7,0-859.1,0
			C13.6,720.4,13.6,659.5,13.6,598.7z"/>
		<g id="obj4">
			
				<path id="path_23_" sodipodi:argument="-36.828354" sodipodi:cx="-633.03754" sodipodi:cy="472.36221" sodipodi:expansion="4" sodipodi:radius="102.28409" sodipodi:revolution="3" sodipodi:t0="0.58559304" sodipodi:type="spiral" class="st3" d="
				M306.2,553c-5.3-0.7-9.4,4.3-9.8,9.4c-0.8,8.9,7.2,15.5,15.3,16c13.3,0.8,23.1-12,23.5-24.8c0.6-20.3-17.8-34.9-36.4-35.1
				c-27.1-0.3-47.1,25.1-48,51.7"/>
			
				<path id="path_22_" sodipodi:argument="-36.828354" sodipodi:cx="-633.03754" sodipodi:cy="472.36221" sodipodi:expansion="4" sodipodi:radius="102.28409" sodipodi:revolution="3" sodipodi:t0="0.58559304" sodipodi:type="spiral" class="st3" d="
				M234.5,574.2c-4.3,0.3-6.6,4-6,7.1c1,5.6,8.4,8.6,14.8,7.7c10.6-1.4,16-10.6,14-18.5c-3.1-12.6-20-19.1-34.6-16.6
				c-21.3,3.6-32.4,22-28.5,38.5"/>
			
				<path id="path_21_" sodipodi:argument="-36.828354" sodipodi:cx="-633.03754" sodipodi:cy="472.36221" sodipodi:expansion="4" sodipodi:radius="102.28409" sodipodi:revolution="3" sodipodi:t0="0.58559304" sodipodi:type="spiral" class="st3" d="
				M357.4,585.6c-1.9-2.8-5.7-2.3-7.9-0.1c-3.9,3.9-3.3,10.7-0.1,14.7c5.3,6.5,14.5,5,19.9-1c8.5-9.4,6.7-24.9-1-33.5
				c-11.3-12.7-29.9-9.7-41.1,2.5"/>
		</g>
		<g id="obj3" transform="translate(376.27057,-4.8892485)">
			
				<path id="path_20_" sodipodi:argument="-36.828354" sodipodi:cx="-633.03754" sodipodi:cy="472.36221" sodipodi:expansion="4" sodipodi:radius="102.28409" sodipodi:revolution="3" sodipodi:t0="0.58559304" sodipodi:type="spiral" class="st3" d="
				M230.9,553.9c-5.3-0.7-9.4,4.3-9.8,9.4c-0.8,8.9,7.2,15.5,15.3,16c13.3,0.8,23.1-12,23.5-24.8c0.6-20.3-17.8-34.9-36.4-35.1
				c-27.1-0.3-47.1,25.1-48,51.7"/>
			
				<path id="path_19_" sodipodi:argument="-36.828354" sodipodi:cx="-633.03754" sodipodi:cy="472.36221" sodipodi:expansion="4" sodipodi:radius="102.28409" sodipodi:revolution="3" sodipodi:t0="0.58559304" sodipodi:type="spiral" class="st3" d="
				M162.7,576.7c-4.2,0.7-6.2,4.6-5.4,7.7c1.5,5.5,9.1,7.8,15.4,6.4c10.4-2.3,15-12,12.3-19.7c-4.2-12.3-21.7-17.2-36-13.4
				c-20.9,5.5-30.3,24.9-24.8,40.9"/>
			
				<path id="path_18_" sodipodi:argument="-36.828354" sodipodi:cx="-633.03754" sodipodi:cy="472.36221" sodipodi:expansion="4" sodipodi:radius="102.28409" sodipodi:revolution="3" sodipodi:t0="0.58559304" sodipodi:type="spiral" class="st3" d="
				M282.1,586.6c-1.9-2.8-5.7-2.3-7.9-0.1c-3.9,3.9-3.3,10.7-0.1,14.7c5.3,6.5,14.5,5,19.9-1c8.5-9.4,6.7-24.9-1-33.5
				c-11.3-12.7-29.9-9.7-41.1,2.5"/>
		</g>
	</g>
	<g id="wave1" transform="matrix(0.92016376,0,0,0.79598664,171.71007,366.28462)">
		
			<linearGradient id="waves_7_" gradientUnits="userSpaceOnUse" x1="163.4033" y1="-535.4996" x2="163.4033" y2="-395.5563" gradientTransform="matrix(0.7361 0 0 -0.6368 150.167 303.4334)">
			<stop  offset="0" style="stop-color:#00056B"/>
			<stop  offset="1" style="stop-color:#0066DF"/>
		</linearGradient>
		<path id="waves" inkscape:connector-curvature="0" sodipodi:nodetypes="cssssscccc" class="st6" d="M-166.7,478.3
			c114,110.9,195.2,123,249.3,111.9C154,575.6,187,535,263.3,530.8c39.1-2.2,93.1,64.9,132.5,62.1c50.6-3.7,115.1-54.8,164.4-65.9
			c35-7.9,55.7,38.9,133.7,59.6c5.8,1.5,10.6,2.7,13.8,3.4c0,24.1,0,48.2,0,72.3c-291.5,0-582.9,0-874.4,0
			C-166.7,601-166.7,539.7-166.7,478.3z"/>
		<g id="obj2">
			
				<path id="path_5_" sodipodi:argument="-36.828354" sodipodi:cx="-633.03754" sodipodi:cy="472.36221" sodipodi:expansion="4" sodipodi:radius="102.28409" sodipodi:revolution="3" sodipodi:t0="0.58559304" sodipodi:type="spiral" class="st3" d="
				M270,527.9c-5.3-0.7-9.4,4.3-9.8,9.4c-0.8,8.9,7.2,15.5,15.3,16c13.3,0.8,23.1-12,23.5-24.8c0.6-20.3-17.8-34.9-36.4-35.1
				c-27.1-0.3-47.1,25.1-48,51.7"/>
			
				<path id="path_4_" sodipodi:argument="-36.828354" sodipodi:cx="-633.03754" sodipodi:cy="472.36221" sodipodi:expansion="4" sodipodi:radius="102.28409" sodipodi:revolution="3" sodipodi:t0="0.58559304" sodipodi:type="spiral" class="st3" d="
				M198.4,549.2c-4.3,0.3-6.6,4-6,7.1c1,5.6,8.4,8.6,14.8,7.7c10.6-1.4,16-10.6,14-18.5c-3.1-12.6-20-19.1-34.6-16.6
				c-21.3,3.6-32.4,22-28.5,38.5"/>
			
				<path id="path_3_" sodipodi:argument="-36.828354" sodipodi:cx="-633.03754" sodipodi:cy="472.36221" sodipodi:expansion="4" sodipodi:radius="102.28409" sodipodi:revolution="3" sodipodi:t0="0.58559304" sodipodi:type="spiral" class="st3" d="
				M321.2,560.6c-1.9-2.8-5.7-2.3-7.9-0.1c-3.9,3.9-3.3,10.7-0.1,14.7c5.3,6.5,14.5,5,19.9-1c8.5-9.4,6.7-24.9-1-33.5
				c-11.3-12.7-29.9-9.7-41.1,2.5"/>
		</g>
		<g id="obj1" transform="translate(376.27057,-4.8892485)">
			
				<path id="path_2_" sodipodi:argument="-36.828354" sodipodi:cx="-633.03754" sodipodi:cy="472.36221" sodipodi:expansion="4" sodipodi:radius="102.28409" sodipodi:revolution="3" sodipodi:t0="0.58559304" sodipodi:type="spiral" class="st3" d="
				M194.8,528.9c-5.3-0.7-9.4,4.3-9.8,9.4c-0.8,8.9,7.2,15.5,15.3,16c13.3,0.8,23.1-12,23.5-24.8c0.6-20.3-17.8-34.9-36.4-35.1
				c-27.1-0.3-47.1,25.1-48,51.7"/>
			
				<path id="path_1_" sodipodi:argument="-36.828354" sodipodi:cx="-633.03754" sodipodi:cy="472.36221" sodipodi:expansion="4" sodipodi:radius="102.28409" sodipodi:revolution="3" sodipodi:t0="0.58559304" sodipodi:type="spiral" class="st3" d="
				M126.6,551.7c-4.2,0.7-6.2,4.6-5.4,7.7c1.5,5.5,9.1,7.8,15.4,6.4c10.4-2.3,15-12,12.3-19.7c-4.2-12.3-21.7-17.2-36-13.4
				c-20.9,5.5-30.3,24.9-24.8,40.9"/>
			
				<path id="path" sodipodi:argument="-36.828354" sodipodi:cx="-633.03754" sodipodi:cy="472.36221" sodipodi:expansion="4" sodipodi:radius="102.28409" sodipodi:revolution="3" sodipodi:t0="0.58559304" sodipodi:type="spiral" class="st3" d="
				M246,561.5c-1.9-2.8-5.7-2.3-7.9-0.1c-3.9,3.9-3.3,10.7-0.1,14.7c5.3,6.5,14.5,5,19.9-1c8.5-9.4,6.7-24.9-1-33.5
				c-11.3-12.7-29.9-9.7-41.1,2.5"/>
		</g>
	</g>
</g>
</svg>
